# xmcd CD database file
#
# Track frame offsets:
#	183
#	28483
#	66888
#	112230
#	150360
#	165543
#	193805
#	222463
#	241955
#
# Disc length: 3551 seconds
#
# Revision: 0
# Processed by: cddbd v1.5PL3 Copyright (c) Steve Scherf et al.
# Submitted via: CDex 1.51
#
DISCID=830ddd09
DTITLE=Paul Bley - Indian Summer
DYEAR=1900
DGENRE=Jazz
TTITLE0=Black and blue
TTITLE1=Blue waltz
TTITLE2=Lisbon lights
TTITLE3=Long ago and far away
TTITLE4=Goodbye
TTITLE5=The more I see You
TTITLE6=Diane
TTITLE7=Blues
TTITLE8=Indian Summer
EXTD=
EXTT0=
EXTT1=
EXTT2=
EXTT3=
EXTT4=
EXTT5=
EXTT6=
EXTT7=
EXTT8=
PLAYORDER=
